<svg xmlns="http://www.w3.org/2000/svg"  viewBox="0 0 100 100" width="16px" height="16px"><path fill="#60be92" d="M29.835,45.054c-0.456,1.781-0.699,3.653-0.699,5.582c0,0.327,0.034,0.645,0.047,0.967 C13.383,51.604,15,70.854,15,70.854l4.142-3.346c-1.877,6.449,1.469,9.598,1.469,9.598l2.913-4.813 c1.301,6.784,4.432,9.625,4.432,9.625l1.466-4.803C38.304,85.864,49.99,89,49.99,89s11.686-3.136,20.569-11.885l1.466,4.803 c0,0,3.131-2.841,4.432-9.625l2.913,4.813c0,0,3.346-3.151,1.469-9.598L85,70.689c0,0,2.276-19.085-14.201-19.085 c0.011-0.322,0.045-0.642,0.045-0.967c0-1.93-0.244-3.802-0.699-5.582"/><path fill="#1f212b" d="M49.99,90c-0.087,0-0.174-0.012-0.259-0.034c-0.467-0.125-11.058-3.035-19.823-11.015l-0.995,3.259 c-0.1,0.327-0.36,0.581-0.69,0.672c-0.329,0.092-0.683,0.008-0.938-0.224c-0.121-0.109-2.641-2.446-4.168-7.762l-1.65,2.727 c-0.156,0.259-0.421,0.433-0.72,0.474c-0.306,0.038-0.601-0.056-0.821-0.263c-0.132-0.125-2.802-2.711-2.295-7.819l-2.002,1.617 c-0.289,0.233-0.682,0.286-1.021,0.143c-0.341-0.146-0.573-0.468-0.604-0.836c-0.035-0.414-0.79-10.202,4.621-16.087 c2.384-2.592,5.579-4.009,9.511-4.22c0-1.971,0.246-3.931,0.73-5.825l1.938,0.496c-0.443,1.733-0.668,3.528-0.668,5.334 c0,0.179,0.012,0.354,0.023,0.53c0.009,0.133,0.018,0.265,0.022,0.398c0.011,0.271-0.09,0.536-0.278,0.732 s-0.448,0.307-0.721,0.307c-3.832,0-6.889,1.211-9.085,3.601c-3.457,3.76-4.069,9.565-4.136,12.587l2.551-2.062 c0.34-0.276,0.819-0.298,1.183-0.055c0.364,0.241,0.528,0.692,0.406,1.111c-1.091,3.75-0.288,6.227,0.429,7.521l2.139-3.532 c0.215-0.354,0.622-0.54,1.032-0.467c0.407,0.073,0.728,0.39,0.806,0.796c0.734,3.832,2.084,6.344,3.039,7.733l0.921-3.015 c0.102-0.335,0.371-0.592,0.71-0.678c0.342-0.086,0.699,0.011,0.948,0.258c7.871,7.755,18.112,11.036,19.865,11.556 c1.752-0.521,12.007-3.813,19.866-11.557c0.249-0.245,0.606-0.343,0.948-0.257c0.339,0.086,0.608,0.344,0.71,0.678l0.921,3.015 c0.954-1.389,2.305-3.9,3.039-7.733c0.078-0.406,0.398-0.723,0.806-0.796c0.413-0.072,0.817,0.113,1.032,0.467l2.139,3.533 c0.716-1.293,1.521-3.771,0.429-7.521c-0.121-0.415,0.038-0.86,0.395-1.104c0.357-0.243,0.83-0.233,1.173,0.031l2.653,2.028 c0.033-2.897-0.375-8.595-3.721-12.357c-2.231-2.509-5.454-3.78-9.581-3.78c-0.271,0-0.531-0.11-0.72-0.306 s-0.289-0.459-0.279-0.73c0.005-0.136,0.013-0.271,0.021-0.406c0.011-0.174,0.022-0.349,0.022-0.525 c0-1.81-0.225-3.604-0.668-5.334l1.938-0.496c0.484,1.89,0.729,3.849,0.73,5.823c4.233,0.207,7.607,1.696,10.037,4.434 c5.22,5.88,4.16,15.344,4.112,15.743c-0.043,0.356-0.273,0.663-0.604,0.803c-0.329,0.141-0.709,0.092-0.996-0.127l-2.053-1.568 c0.552,5.174-2.15,7.794-2.284,7.92c-0.22,0.207-0.522,0.302-0.82,0.263c-0.3-0.041-0.564-0.215-0.721-0.474l-1.65-2.727 c-1.527,5.315-4.047,7.652-4.168,7.762c-0.255,0.231-0.608,0.314-0.938,0.224c-0.33-0.091-0.591-0.345-0.69-0.672l-0.995-3.259 c-8.767,7.979-19.357,10.89-19.824,11.015C50.164,89.988,50.077,90,49.99,90z"/><circle cx="60" cy="55.661" r="5" fill="#fae8e6"/><path fill="#1f212b" d="M59.996,61.162c-0.961,0-1.91-0.255-2.746-0.738c-1.697-0.979-2.751-2.806-2.751-4.767 c0-0.386,0.041-0.771,0.122-1.145c0.058-0.27,0.32-0.442,0.594-0.383c0.27,0.058,0.441,0.324,0.383,0.594 c-0.065,0.305-0.099,0.619-0.099,0.934c0,1.605,0.862,3.1,2.251,3.901c0.972,0.56,2.141,0.737,3.226,0.496 c0.274-0.059,0.537,0.111,0.597,0.38c0.06,0.27-0.11,0.537-0.38,0.597C60.801,61.118,60.398,61.162,59.996,61.162z M63.651,59.579 c-0.122,0-0.244-0.045-0.341-0.134c-0.202-0.188-0.213-0.505-0.025-0.707c0.233-0.25,0.439-0.528,0.612-0.827 c0.395-0.685,0.604-1.461,0.604-2.246c-0.001-0.373-0.048-0.745-0.139-1.105c-0.068-0.268,0.094-0.54,0.361-0.607 c0.271-0.072,0.539,0.094,0.607,0.361c0.111,0.439,0.169,0.894,0.17,1.351c0,0.962-0.255,1.911-0.738,2.747 c-0.21,0.364-0.461,0.704-0.745,1.009C63.919,59.525,63.785,59.579,63.651,59.579z M55.901,53.296c-0.099,0-0.198-0.029-0.285-0.09 c-0.227-0.157-0.283-0.469-0.125-0.695c0.209-0.303,0.45-0.583,0.715-0.835c0.199-0.188,0.516-0.184,0.707,0.018 c0.19,0.2,0.183,0.517-0.018,0.707c-0.216,0.205-0.412,0.435-0.584,0.681C56.215,53.221,56.06,53.296,55.901,53.296z M63.312,52.413c-0.117,0-0.235-0.041-0.33-0.125c-0.225-0.197-0.471-0.374-0.731-0.523c-0.897-0.519-1.962-0.706-2.972-0.546 c-0.268,0.05-0.529-0.14-0.573-0.413c-0.045-0.272,0.141-0.529,0.413-0.573c1.262-0.206,2.541,0.035,3.632,0.666 c0.317,0.183,0.618,0.398,0.892,0.64c0.208,0.183,0.228,0.498,0.045,0.705C63.588,52.355,63.45,52.413,63.312,52.413z"/><circle cx="40" cy="55.661" r="5" fill="#fae8e6"/><path fill="#1f212b" d="M40.004,61.161c-0.002,0-0.003,0-0.004,0c-2.392,0-4.494-1.527-5.232-3.8 c-0.085-0.263,0.059-0.545,0.321-0.63c0.262-0.085,0.546,0.059,0.63,0.321c0.604,1.859,2.324,3.108,4.281,3.108 c0.001,0,0.002,0,0.003,0c1.13,0,2.209-0.42,3.04-1.184c0.202-0.186,0.52-0.173,0.706,0.03s0.174,0.52-0.03,0.706 C42.703,60.647,41.384,61.161,40.004,61.161z M44.871,57.294c-0.037,0-0.074-0.004-0.112-0.013c-0.27-0.063-0.437-0.33-0.375-0.6 c0.077-0.334,0.116-0.678,0.116-1.021c0-1.179-0.452-2.292-1.272-3.137c-0.192-0.198-0.188-0.515,0.01-0.707 s0.515-0.188,0.707,0.01c1.003,1.032,1.556,2.394,1.556,3.834c0,0.418-0.048,0.837-0.142,1.245 C45.305,57.138,45.1,57.294,44.871,57.294z M35.02,55.733c-0.015,0-0.028-0.001-0.043-0.002c-0.275-0.022-0.479-0.265-0.456-0.54 c0.03-0.365,0.099-0.729,0.202-1.08c0.077-0.267,0.358-0.415,0.62-0.339c0.266,0.078,0.417,0.355,0.339,0.62 c-0.084,0.288-0.14,0.585-0.165,0.883C35.495,55.536,35.276,55.733,35.02,55.733z M36.834,52.29c-0.145,0-0.288-0.063-0.387-0.184 c-0.175-0.213-0.144-0.528,0.07-0.703c0.978-0.801,2.213-1.242,3.479-1.242c0.001,0,0.003,0,0.004,0 c0.365,0,0.732,0.036,1.092,0.108c0.271,0.054,0.447,0.317,0.393,0.588c-0.055,0.272-0.328,0.446-0.588,0.393 C40.601,51.191,40.3,51.161,40,51.161c-0.001,0-0.002,0-0.004,0c-1.035,0-2.045,0.36-2.846,1.016 C37.058,52.253,36.945,52.29,36.834,52.29z"/><circle cx="58.333" cy="55.661" r="1.667" fill="#1f212b"/><circle cx="41.667" cy="55.661" r="1.667" fill="#1f212b"/><path fill="#a1d3a2" d="M65,50.661c-7.597,0-8.333,8.333-11.667,8.333c-2.69,0-3.333-3.333-3.333-3.333s1.667,1.667,3.333,0 c1.25-1.25,3.445-5.843,6.112-6.433C63.353,48.363,65,50.661,65,50.661z"/><path fill="#1f212b" d="M53.333,59.494c-1.157,0-2.154-0.543-2.883-1.57c-0.159-0.225-0.106-0.537,0.119-0.697 c0.225-0.157,0.536-0.107,0.697,0.119c0.54,0.762,1.235,1.148,2.066,1.148c0.48,0,0.92-0.228,1.427-0.736 c0.195-0.197,0.512-0.195,0.707-0.002c0.196,0.194,0.196,0.512,0.002,0.707C54.769,59.166,54.091,59.494,53.333,59.494z M51.729,56.902c-0.421,0-0.846-0.106-1.264-0.317c-0.247-0.124-0.346-0.425-0.222-0.671c0.124-0.248,0.424-0.345,0.671-0.222 c0.738,0.372,1.434,0.248,2.065-0.385c0.335-0.335,0.773-0.976,1.28-1.717c0.865-1.267,1.943-2.843,3.181-3.857 c0.216-0.175,0.529-0.144,0.704,0.069c0.175,0.214,0.144,0.529-0.069,0.704c-1.127,0.924-2.16,2.435-2.99,3.648 c-0.535,0.782-0.997,1.458-1.398,1.859C53.099,56.604,52.439,56.902,51.729,56.902z M56.928,56.222 c-0.099,0-0.198-0.029-0.286-0.09c-0.227-0.158-0.282-0.47-0.124-0.696c1.678-2.407,3.621-4.765,7.244-5.202 c-0.562-0.352-1.422-0.7-2.629-0.7c-0.466-0.017-0.986,0.056-1.513,0.168c-0.266,0.054-0.535-0.114-0.594-0.385 c-0.058-0.271,0.115-0.536,0.385-0.594c0.597-0.128,1.156-0.172,1.723-0.189c2.923,0,4.219,1.762,4.272,1.837 c0.109,0.152,0.124,0.353,0.038,0.52c-0.085,0.167-0.257,0.271-0.444,0.271c-3.955,0-5.954,2.395-7.662,4.847 C57.241,56.147,57.085,56.222,56.928,56.222z"/><path fill="#a1d3a2" d="M35,50.661c7.597,0,8.333,8.333,11.667,8.333c2.672,0,3.333-3.333,3.333-3.333s-1.667,1.667-3.333,0 c-1.25-1.25-3.445-5.87-6.112-6.46C36.647,48.336,35,50.661,35,50.661z"/><path fill="#1f212b" d="M46.667,59.494c-0.758,0-1.436-0.328-2.136-1.031c-0.194-0.195-0.194-0.513,0.002-0.707 s0.513-0.194,0.707,0.002c0.507,0.509,0.946,0.736,1.427,0.736c0.826,0,1.521-0.389,2.065-1.155 c0.159-0.225,0.474-0.276,0.697-0.117c0.225,0.159,0.277,0.472,0.117,0.697C48.815,58.949,47.819,59.494,46.667,59.494z M48.271,56.902c-0.711,0-1.37-0.299-1.958-0.888c-0.402-0.402-0.866-1.083-1.403-1.872c-0.826-1.214-1.854-2.725-2.976-3.65 c-0.213-0.176-0.243-0.491-0.067-0.704c0.178-0.214,0.493-0.243,0.704-0.067c1.23,1.018,2.304,2.593,3.166,3.859 c0.508,0.746,0.947,1.392,1.283,1.728c0.633,0.632,1.333,0.753,2.062,0.387c0.244-0.123,0.548-0.025,0.672,0.223 c0.123,0.247,0.023,0.548-0.223,0.672C49.116,56.797,48.692,56.902,48.271,56.902z M43.072,56.222c-0.157,0-0.313-0.074-0.41-0.214 c-1.708-2.452-3.707-4.847-7.662-4.847c-0.187,0-0.358-0.104-0.444-0.271s-0.071-0.366,0.036-0.519 c0.054-0.076,1.354-1.864,4.289-1.864c0.55,0,1.13,0.064,1.723,0.191c0.271,0.059,0.442,0.324,0.385,0.594 c-0.059,0.271-0.327,0.437-0.594,0.385c-0.524-0.113-1.034-0.17-1.514-0.17c-1.225,0-2.094,0.362-2.656,0.724 c3.632,0.434,5.578,2.793,7.258,5.204c0.158,0.227,0.103,0.538-0.124,0.696C43.271,56.192,43.171,56.222,43.072,56.222z"/><path fill="#60be92" d="M60,63.161c0-4.142,3.358-7.5,7.5-7.5l-1.015,6.015L60,63.161z"/><path fill="#1f212b" d="M60,63.661c-0.276,0-0.5-0.224-0.5-0.5c0-4.411,3.589-8,8-8c0.276,0,0.5,0.224,0.5,0.5	s-0.224,0.5-0.5,0.5c-3.859,0-7,3.141-7,7C60.5,63.438,60.276,63.661,60,63.661z"/><path fill="#60be92" d="M32.5,55.661c4.142,0,7.5,3.358,7.5,7.5l-6.126-1.126L32.5,55.661z"/><path fill="#1f212b" d="M40,63.661c-0.276,0-0.5-0.224-0.5-0.5c0-3.859-3.141-7-7-7c-0.276,0-0.5-0.224-0.5-0.5	s0.224-0.5,0.5-0.5c4.411,0,8,3.589,8,8C40.5,63.438,40.276,63.661,40,63.661z"/><path fill="#a1d3a2" d="M56.375,66.209c-0.003-0.01-0.005-0.021-0.008-0.03c-0.08-0.241-0.192-0.46-0.332-0.658 c-0.956-1.475-3.29-2.52-6.033-2.52s-5.076,1.045-6.033,2.52c-0.14,0.198-0.254,0.417-0.332,0.658 c-0.003,0.01-0.005,0.021-0.008,0.03c-0.078,0.248-0.129,0.508-0.129,0.786c0,1.323,0.97,2.397,2.167,2.397 c1.196,0,2.167-0.789,2.167-0.789C47.833,69.926,48.803,71,50,71c1.196,0,2.167-1.074,2.167-2.397c0,0,0.97,0.789,2.167,0.789 s2.167-1.074,2.167-2.397C56.503,66.717,56.453,66.457,56.375,66.209z"/><path fill="#1f212b" d="M50,71.5c-1.205,0-2.226-0.873-2.556-2.066c-0.039,0.02-0.079,0.039-0.12,0.06 c-0.249,0.114-0.548,0.012-0.667-0.237c-0.118-0.25-0.012-0.548,0.237-0.667c0.378-0.179,0.621-0.373,0.624-0.375 c0.15-0.121,0.355-0.146,0.53-0.062c0.173,0.083,0.284,0.258,0.284,0.45c0,1.046,0.748,1.897,1.667,1.897s1.667-0.852,1.667-1.897 c0-0.192,0.111-0.367,0.284-0.45c0.175-0.084,0.379-0.06,0.53,0.062c0.007,0.006,0.689,0.548,1.551,0.658 c0.274,0.035,0.468,0.286,0.433,0.56c-0.035,0.275-0.292,0.467-0.56,0.433c-0.527-0.068-0.994-0.251-1.35-0.432 C52.227,70.627,51.205,71.5,50,71.5z M44.3,69.354c-0.119,0-0.239-0.042-0.335-0.128C43.352,68.674,43,67.86,43,66.995 c0-0.306,0.05-0.611,0.152-0.937c0.099-0.312,0.232-0.578,0.407-0.826c0.246-0.38,0.59-0.75,1.012-1.083 c0.216-0.171,0.53-0.134,0.702,0.083c0.171,0.217,0.134,0.531-0.083,0.702c-0.335,0.265-0.605,0.553-0.802,0.857 c-0.128,0.183-0.218,0.359-0.276,0.541C44.034,66.585,44,66.793,44,66.995c0,0.583,0.231,1.125,0.635,1.487 c0.205,0.186,0.222,0.501,0.037,0.707C44.572,69.299,44.437,69.354,44.3,69.354z M55.795,69.265c-0.127,0-0.254-0.048-0.352-0.145 c-0.196-0.194-0.198-0.511-0.004-0.707c0.357-0.361,0.562-0.878,0.561-1.417c0-0.216-0.032-0.417-0.103-0.635 c-0.068-0.213-0.158-0.391-0.272-0.553c-0.898-1.388-3.153-2.309-5.623-2.309c-0.798,0-1.571,0.092-2.3,0.272 c-0.271,0.063-0.54-0.099-0.605-0.365c-0.066-0.268,0.097-0.539,0.365-0.605c0.806-0.2,1.661-0.302,2.54-0.302 c2.839,0,5.371,1.079,6.452,2.749c0.159,0.226,0.293,0.491,0.387,0.772C56.952,66.376,57,66.674,57,66.995 c0.001,0.801-0.309,1.574-0.85,2.121C56.053,69.215,55.924,69.265,55.795,69.265z"/><path fill="#f15b6c" d="M30.729,33.958c0,0,8.021-22.958,24.063-22.958c5.988,0,3.075,3.708,12.833,3.708 c14.438,0,15.597,12.389,15.597,12.389l-3.208,1.604c0,0-9.181-5.972-13.993-4.368c1.604,3.208,3.208,9.625,3.208,9.625"/><path fill="#1f212b" d="M31.674,34.288l-1.889-0.66C30.122,32.663,38.23,10,54.792,10c2.976,0,4.099,0.88,5.184,1.73 c1.24,0.973,2.523,1.978,7.649,1.978c15.173,0,16.581,13.163,16.594,13.297c0.038,0.41-0.18,0.803-0.549,0.987l-3.209,1.604 c-0.318,0.157-0.695,0.136-0.992-0.056c-2.209-1.436-8.235-4.744-12.014-4.468c1.427,3.404,2.686,8.406,2.744,8.644L68.26,34.2 c-0.017-0.063-1.598-6.347-3.134-9.42c-0.13-0.26-0.141-0.563-0.029-0.83s0.333-0.475,0.607-0.565 c4.6-1.536,12.331,2.921,14.365,4.171l2.057-1.028c-0.466-2.467-2.902-10.819-14.501-10.819c-5.816,0-7.517-1.332-8.883-2.403 C57.775,12.548,57.077,12,54.792,12C39.635,12,31.751,34.064,31.674,34.288z"/><path fill="#fae8e6" d="M68.836,45H31.122c-1.736,0-3.143-1.406-3.143-3.143v-4.714c0-1.736,1.406-3.143,3.143-3.143h37.714 c1.736,0,3.143,1.406,3.143,3.143v4.714C71.979,43.594,70.573,45,68.836,45z"/><path fill="#1f212b" d="M68.836,46H31.122c-2.284,0-4.143-1.858-4.143-4.143v-4.715c0-2.284,1.858-4.143,4.143-4.143h37.714 c2.285,0,4.144,1.858,4.144,4.143v4.715C72.979,44.142,71.121,46,68.836,46z M31.122,35c-1.182,0-2.143,0.961-2.143,2.143v4.715 c0,1.182,0.961,2.143,2.143,2.143h37.714c1.182,0,2.144-0.961,2.144-2.143v-4.715c0-1.182-0.962-2.143-2.144-2.143H31.122z"/><g><circle cx="84" cy="34" r="7" fill="#fae8e6"/><path fill="#1f212b" d="M84,42c-4.411,0-8-3.589-8-8s3.589-8,8-8s8,3.589,8,8S88.411,42,84,42z M84,28c-3.309,0-6,2.691-6,6 s2.691,6,6,6s6-2.691,6-6S87.309,28,84,28z"/></g><g><path fill="#1f212b" d="M61.756,24.502c-5.044,0-7.207-2.091-7.317-2.202c-0.195-0.195-0.195-0.512,0-0.707 c0.195-0.193,0.51-0.195,0.705-0.002c0.032,0.031,3.167,2.994,10.779,1.47c0.259-0.057,0.533,0.12,0.588,0.393 c0.055,0.271-0.121,0.534-0.393,0.588C64.474,24.37,63.023,24.502,61.756,24.502z"/></g><g><path fill="#1f212b" d="M22.719,60.331c-0.001,0-0.002,0-0.003,0c-0.275-0.001-0.497-0.223-0.497-0.498 c0-0.047,0.079-4.708,6.917-4.708c0.276,0,0.5,0.224,0.5,0.5s-0.224,0.5-0.5,0.5c-5.805,0-5.915,3.56-5.917,3.711 C23.216,60.11,22.992,60.331,22.719,60.331z"/></g><g><path fill="#1f212b" d="M49.99,83.083c-0.256,0-0.512-0.098-0.707-0.293c-2.061-2.061-5.45-3.642-9.038-5.315 c-7.18-3.35-15.317-7.146-15.317-16.245c0-0.553,0.447-1,1-1s1,0.447,1,1c0,7.826,7.2,11.185,14.163,14.433 c3.388,1.581,6.606,3.082,8.899,5.059c2.293-1.977,5.512-3.478,8.899-5.059c6.963-3.248,14.163-6.607,14.163-14.433 c0-0.553,0.447-1,1-1s1,0.447,1,1c0,9.1-8.138,12.896-15.317,16.245c-3.588,1.674-6.978,3.255-9.038,5.315 C50.502,82.985,50.246,83.083,49.99,83.083z"/></g><g><path fill="#1f212b" d="M77.261,60.333c-0.275,0-0.498-0.223-0.5-0.497c-0.002-0.153-0.113-3.711-5.917-3.711 c-0.276,0-0.5-0.224-0.5-0.5s0.224-0.5,0.5-0.5c6.838,0,6.917,4.661,6.917,4.708C77.761,60.109,77.537,60.333,77.261,60.333z"/></g><g><path fill="#1f212b" d="M69.5,39H59c-0.276,0-0.5-0.224-0.5-0.5S58.724,38,59,38h10.5c0.276,0,0.5,0.224,0.5,0.5 S69.776,39,69.5,39z M56,39h-2c-0.276,0-0.5-0.224-0.5-0.5S53.724,38,54,38h2c0.276,0,0.5,0.224,0.5,0.5S56.276,39,56,39z M51,39 H31c-0.276,0-0.5-0.224-0.5-0.5S30.724,38,31,38h20c0.276,0,0.5,0.224,0.5,0.5S51.276,39,51,39z"/></g><g><circle cx="84" cy="32" r="4.5" fill="#f4cccb"/><path fill="#1f212b" d="M84.011,37c-0.004,0-0.008,0-0.012,0c-1.45,0-2.827-0.629-3.778-1.727 c-0.181-0.208-0.158-0.524,0.051-0.705s0.524-0.159,0.705,0.051C81.737,35.496,82.839,36,84,36c0.32-0.008,0.678-0.042,1.004-0.127 c0.275-0.068,0.541,0.093,0.61,0.358c0.069,0.268-0.092,0.541-0.358,0.61C84.85,36.946,84.432,37,84.011,37z M87.581,35.225 c-0.106,0-0.213-0.033-0.303-0.103c-0.22-0.167-0.263-0.481-0.095-0.7C87.718,33.721,88,32.884,88,32c0-2.206-1.794-4-4-4 s-4,1.794-4,4l0.005,0.193c0.011,0.276-0.203,0.509-0.479,0.521c-0.291-0.003-0.509-0.204-0.521-0.479L79,32c0-2.757,2.243-5,5-5 s5,2.243,5,5c0,1.104-0.354,2.151-1.021,3.027C87.88,35.157,87.731,35.225,87.581,35.225z"/></g><g><path fill="#1f212b" d="M37.837,29.958c-0.083,0-0.167-0.021-0.245-0.064c-0.24-0.135-0.326-0.439-0.19-0.681 c3.28-5.841,6.828-9.941,10.544-12.187c0.235-0.141,0.544-0.067,0.687,0.169s0.067,0.544-0.169,0.687 c-3.566,2.155-6.995,6.133-10.19,11.821C38.181,29.866,38.012,29.958,37.837,29.958z M74.645,21.486 c-0.093,0-0.187-0.025-0.271-0.079c-1.755-1.128-4.026-1.699-6.749-1.699c-6.473,0-8.931-1.304-11.072-2.756 c-0.216-0.146-0.382-0.302-0.54-0.453c-0.159-0.15-0.284-0.271-0.446-0.354c-0.245-0.127-0.342-0.428-0.215-0.674 c0.127-0.245,0.429-0.342,0.674-0.215c0.288,0.148,0.485,0.337,0.677,0.519c0.121,0.115,0.247,0.237,0.411,0.349 c2.008,1.362,4.323,2.584,10.512,2.584c2.918,0,5.37,0.625,7.29,1.857c0.232,0.149,0.3,0.459,0.15,0.691 C74.97,21.405,74.809,21.486,74.645,21.486z M50.907,16.669c-0.207,0-0.4-0.13-0.473-0.336c-0.09-0.261,0.048-0.546,0.309-0.637 c0.666-0.23,1.343-0.406,2.011-0.521c0.264-0.055,0.53,0.136,0.578,0.407c0.047,0.271-0.136,0.53-0.408,0.578 c-0.614,0.105-1.238,0.268-1.853,0.481C51.017,16.66,50.962,16.669,50.907,16.669z"/></g></svg>